<mxfile host="app.diagrams.net" modified="2021-04-22T13:28:32.527Z" agent="5.0 (Windows NT 10.0; Win64; x64) AppleWebKit/537.36 (KHTML, like Gecko) Chrome/90.0.4430.72 Safari/537.36 Edg/90.0.818.42" etag="53srmbrod2a_QYLkIcTW" version="14.6.5" type="github">
  <diagram id="kgpKYQtTHZ0yAKxKKP6v" name="Page-1">
    <mxGraphModel dx="1632" dy="469" grid="1" gridSize="10" guides="1" tooltips="1" connect="1" arrows="1" fold="1" page="1" pageScale="1" pageWidth="850" pageHeight="1100" math="0" shadow="0">
      <root>
        <mxCell id="0" />
        <mxCell id="1" parent="0" />
        <mxCell id="3nuBFxr9cyL0pnOWT2aG-1" value="View" style="shape=umlLifeline;perimeter=lifelinePerimeter;container=1;collapsible=0;recursiveResize=0;rounded=0;shadow=0;strokeWidth=1;" parent="1" vertex="1">
          <mxGeometry x="120" y="80" width="100" height="620" as="geometry" />
        </mxCell>
        <mxCell id="3nuBFxr9cyL0pnOWT2aG-2" value="" style="points=[];perimeter=orthogonalPerimeter;rounded=0;shadow=0;strokeWidth=1;" parent="3nuBFxr9cyL0pnOWT2aG-1" vertex="1">
          <mxGeometry x="45" y="70" width="10" height="370" as="geometry" />
        </mxCell>
        <mxCell id="3nuBFxr9cyL0pnOWT2aG-5" value="Controler" style="shape=umlLifeline;perimeter=lifelinePerimeter;container=1;collapsible=0;recursiveResize=0;rounded=0;shadow=0;strokeWidth=1;" parent="1" vertex="1">
          <mxGeometry x="340" y="80" width="100" height="620" as="geometry" />
        </mxCell>
        <mxCell id="3nuBFxr9cyL0pnOWT2aG-6" value="" style="points=[];perimeter=orthogonalPerimeter;rounded=0;shadow=0;strokeWidth=1;" parent="3nuBFxr9cyL0pnOWT2aG-5" vertex="1">
          <mxGeometry x="45" y="80" width="10" height="160" as="geometry" />
        </mxCell>
        <mxCell id="XMhn7jzWNxRffur_yB8t-5" value="Model" style="shape=umlLifeline;perimeter=lifelinePerimeter;container=1;collapsible=0;recursiveResize=0;rounded=0;shadow=0;strokeWidth=1;" vertex="1" parent="1">
          <mxGeometry x="540" y="80" width="100" height="610" as="geometry" />
        </mxCell>
        <mxCell id="XMhn7jzWNxRffur_yB8t-6" value="" style="points=[];perimeter=orthogonalPerimeter;rounded=0;shadow=0;strokeWidth=1;" vertex="1" parent="XMhn7jzWNxRffur_yB8t-5">
          <mxGeometry x="45" y="70" width="10" height="190" as="geometry" />
        </mxCell>
        <mxCell id="XMhn7jzWNxRffur_yB8t-18" value="Reception" style="shape=umlActor;verticalLabelPosition=bottom;verticalAlign=top;html=1;outlineConnect=0;" vertex="1" parent="1">
          <mxGeometry x="-15" y="40" width="30" height="60" as="geometry" />
        </mxCell>
        <mxCell id="XMhn7jzWNxRffur_yB8t-19" value="Actor" style="shape=umlActor;verticalLabelPosition=bottom;verticalAlign=top;html=1;outlineConnect=0;" vertex="1" parent="1">
          <mxGeometry x="-220" y="40" width="30" height="60" as="geometry" />
        </mxCell>
        <mxCell id="XMhn7jzWNxRffur_yB8t-28" value="" style="endArrow=none;dashed=1;html=1;startArrow=none;" edge="1" parent="1" source="XMhn7jzWNxRffur_yB8t-55">
          <mxGeometry width="50" height="50" relative="1" as="geometry">
            <mxPoint x="-205" y="560" as="sourcePoint" />
            <mxPoint x="-205" y="120" as="targetPoint" />
          </mxGeometry>
        </mxCell>
        <mxCell id="XMhn7jzWNxRffur_yB8t-29" value="" style="endArrow=classic;html=1;" edge="1" parent="1">
          <mxGeometry width="50" height="50" relative="1" as="geometry">
            <mxPoint x="70" y="520" as="sourcePoint" />
            <mxPoint x="120" y="470" as="targetPoint" />
          </mxGeometry>
        </mxCell>
        <mxCell id="3nuBFxr9cyL0pnOWT2aG-3" value="booking room" style="verticalAlign=bottom;startArrow=oval;endArrow=block;startSize=8;shadow=0;strokeWidth=1;entryX=-0.064;entryY=0.105;entryDx=0;entryDy=0;entryPerimeter=0;exitX=1.073;exitY=0.102;exitDx=0;exitDy=0;exitPerimeter=0;" parent="1" target="XMhn7jzWNxRffur_yB8t-53" edge="1" source="XMhn7jzWNxRffur_yB8t-55">
          <mxGeometry relative="1" as="geometry">
            <mxPoint x="-148" y="160" as="sourcePoint" />
            <mxPoint y="160" as="targetPoint" />
          </mxGeometry>
        </mxCell>
        <mxCell id="XMhn7jzWNxRffur_yB8t-31" value="" style="endArrow=none;dashed=1;html=1;startArrow=none;" edge="1" parent="1" source="XMhn7jzWNxRffur_yB8t-53">
          <mxGeometry width="50" height="50" relative="1" as="geometry">
            <mxPoint y="560" as="sourcePoint" />
            <mxPoint y="119.99999999999989" as="targetPoint" />
          </mxGeometry>
        </mxCell>
        <mxCell id="XMhn7jzWNxRffur_yB8t-50" value="ask type of room, time to use" style="html=1;verticalAlign=bottom;endArrow=open;dashed=1;endSize=8;entryX=1.087;entryY=0.205;entryDx=0;entryDy=0;entryPerimeter=0;exitX=-0.28;exitY=0.212;exitDx=0;exitDy=0;exitPerimeter=0;" edge="1" parent="1" source="XMhn7jzWNxRffur_yB8t-53" target="XMhn7jzWNxRffur_yB8t-55">
          <mxGeometry relative="1" as="geometry">
            <mxPoint y="200" as="sourcePoint" />
            <mxPoint x="-160" y="200" as="targetPoint" />
          </mxGeometry>
        </mxCell>
        <mxCell id="XMhn7jzWNxRffur_yB8t-51" value="answer" style="html=1;verticalAlign=bottom;endArrow=block;exitX=0.967;exitY=0.309;exitDx=0;exitDy=0;exitPerimeter=0;entryX=-0.029;entryY=0.315;entryDx=0;entryDy=0;entryPerimeter=0;" edge="1" parent="1" source="XMhn7jzWNxRffur_yB8t-55" target="XMhn7jzWNxRffur_yB8t-53">
          <mxGeometry width="80" relative="1" as="geometry">
            <mxPoint x="-155" y="240" as="sourcePoint" />
            <mxPoint x="-7" y="243" as="targetPoint" />
          </mxGeometry>
        </mxCell>
        <mxCell id="XMhn7jzWNxRffur_yB8t-52" value="check&amp;nbsp;available" style="html=1;verticalAlign=bottom;endArrow=block;" edge="1" parent="1" target="3nuBFxr9cyL0pnOWT2aG-1">
          <mxGeometry width="80" relative="1" as="geometry">
            <mxPoint y="280" as="sourcePoint" />
            <mxPoint x="80" y="280" as="targetPoint" />
          </mxGeometry>
        </mxCell>
        <mxCell id="XMhn7jzWNxRffur_yB8t-53" value="" style="html=1;points=[];perimeter=orthogonalPerimeter;" vertex="1" parent="1">
          <mxGeometry x="-5" y="120" width="10" height="380" as="geometry" />
        </mxCell>
        <mxCell id="XMhn7jzWNxRffur_yB8t-54" value="" style="endArrow=none;dashed=1;html=1;" edge="1" parent="1" target="XMhn7jzWNxRffur_yB8t-53">
          <mxGeometry width="50" height="50" relative="1" as="geometry">
            <mxPoint y="560" as="sourcePoint" />
            <mxPoint y="119.99999999999989" as="targetPoint" />
          </mxGeometry>
        </mxCell>
        <mxCell id="XMhn7jzWNxRffur_yB8t-55" value="" style="html=1;points=[];perimeter=orthogonalPerimeter;" vertex="1" parent="1">
          <mxGeometry x="-210" y="120" width="10" height="390" as="geometry" />
        </mxCell>
        <mxCell id="XMhn7jzWNxRffur_yB8t-56" value="" style="endArrow=none;dashed=1;html=1;" edge="1" parent="1" target="XMhn7jzWNxRffur_yB8t-55">
          <mxGeometry width="50" height="50" relative="1" as="geometry">
            <mxPoint x="-205" y="560" as="sourcePoint" />
            <mxPoint x="-205" y="120.00000000000006" as="targetPoint" />
          </mxGeometry>
        </mxCell>
      </root>
    </mxGraphModel>
  </diagram>
</mxfile>
